<svg width="512" height="512" viewBox="0 0 512 512" fill="none" xmlns="http://www.w3.org/2000/svg">
  <defs>
    <linearGradient id="a" x1="164" y1="80" x2="348" y2="420" gradientUnits="userSpaceOnUse">
      <stop stop-color="#5BE4FF"/>
      <stop offset="0.48" stop-color="#0DA7F8"/>
      <stop offset="1" stop-color="#103A7B"/>
    </linearGradient>
    <linearGradient id="b" x1="180" y1="108" x2="332" y2="390" gradientUnits="userSpaceOnUse">
      <stop stop-color="#7EF0FF"/>
      <stop offset="0.62" stop-color="#1A9CFF"/>
      <stop offset="1" stop-color="#0D2E69"/>
    </linearGradient>
    <linearGradient id="c" x1="94" y1="248" x2="426" y2="248" gradientUnits="userSpaceOnUse">
      <stop stop-color="#F7FDFF"/>
      <stop offset="0.33" stop-color="#67E8FF"/>
      <stop offset="0.62" stop-color="#209AFF"/>
      <stop offset="1" stop-color="#DFFBFF"/>
    </linearGradient>
    <filter id="shadow" x="70" y="60" width="372" height="392" filterUnits="userSpaceOnUse" color-interpolation-filters="sRGB">
      <feDropShadow dx="0" dy="16" stdDeviation="18" flood-color="#07234D" flood-opacity="0.25"/>
    </filter>
  </defs>

  <g filter="url(#shadow)">
    <path d="M214 76L110 398H170L195 318H304L330 398H394L290 76H214Z" fill="url(#a)"/>
    <path d="M236 126L258 126L351 398H304L286 344H209L236 126Z" fill="url(#b)" opacity="0.78"/>
    <path d="M243 200H276L290 246H228L243 200Z" fill="#031A3E" opacity="0.9"/>
    <path d="M126 282C154 222 194 198 252 198C311 198 349 224 375 279" stroke="url(#c)" stroke-width="22" stroke-linecap="round"/>
    <path d="M118 277C150 201 200 166 260 166C320 166 363 196 392 250" stroke="#E7FAFF" stroke-width="10" stroke-linecap="round" opacity="0.9"/>
    <path d="M379 246C389 262 393 277 393 293C393 326 376 352 349 371" stroke="#58EAFF" stroke-width="12" stroke-linecap="round"/>
    <circle cx="401" cy="252" r="7" fill="#7AF2FF"/>
    <circle cx="138" cy="350" r="3.5" fill="#7AF2FF"/>
  </g>
</svg>
